<svg xmlns="http://www.w3.org/2000/svg" viewBox="0 0 512 512" width="512" height="512">
  <rect width="512" height="512" fill="#111111" rx="80" ry="80"/>
  <path d="M 256 45 C 275 95, 355 175, 365 230 C 380 300, 365 350, 345 385 C 325 420, 295 445, 256 475 C 217 445, 187 420, 167 385 C 147 350, 132 300, 147 230 C 157 175, 237 95, 256 45 Z" fill="#c49428"/>
  <path d="M 256 170 C 247 195, 195 240, 190 280 C 183 330, 195 365, 215 395 C 230 415, 245 440, 256 460 C 267 440, 282 415, 297 395 C 317 365, 329 330, 322 280 C 317 240, 265 195, 256 170 Z" fill="#111111"/>
  <path d="M 256 280 C 262 295, 290 320, 292 345 C 295 370, 285 390, 272 410 C 265 420, 260 435, 256 445 C 252 435, 247 420, 240 410 C 227 390, 217 370, 220 345 C 222 320, 250 295, 256 280 Z" fill="#c49428"/>
</svg>
